<svg width="39" height="39" viewBox="0 0 39 39" fill="none" xmlns="http://www.w3.org/2000/svg">
<path d="M0.0792427 3.29855C0.000188167 1.99759 0.375697 1.08072 1.20577 0.547943C1.66316 0.25058 2.46217 0.0988004 3.60282 0.0926054C14.2921 -0.0127107 24.9786 -0.0281981 35.6623 0.0461426C37.729 0.0585328 38.7765 1.02496 38.8047 2.94543C38.9628 13.3036 39.0249 24.3525 38.991 36.0921C38.991 37.4179 38.4122 38.2635 37.2547 38.629C36.3851 38.914 35.2726 39.0348 33.9174 38.9914C31.9806 38.9357 30.9896 38.9109 30.9444 38.9171C21.2998 38.9976 11.8612 38.9202 2.62875 38.6848C0.917786 38.6414 0.0538324 37.6812 0.0368921 35.804C-0.0421625 25.5388 0.00583504 15.3232 0.180884 5.15707C0.180884 5.08892 0.147004 4.46942 0.0792427 3.29855ZM32.0201 10.0729C32.0201 9.83133 31.9327 9.59969 31.777 9.42891C31.6213 9.25812 31.4102 9.16218 31.19 9.16218H7.84635C7.62621 9.16218 7.41507 9.25812 7.2594 9.42891C7.10374 9.59969 7.01628 9.83133 7.01628 10.0729V10.11C7.01628 10.3515 7.10374 10.5832 7.2594 10.754C7.41507 10.9248 7.62621 11.0207 7.84635 11.0207H31.19C31.4102 11.0207 31.6213 10.9248 31.777 10.754C31.9327 10.5832 32.0201 10.3515 32.0201 10.11V10.0729ZM32.0116 19.3654C32.0116 19.1239 31.9242 18.8923 31.7685 18.7215C31.6128 18.5507 31.4017 18.4548 31.1816 18.4548H7.85482C7.63467 18.4548 7.42354 18.5507 7.26787 18.7215C7.1122 18.8923 7.02475 19.1239 7.02475 19.3654V19.4026C7.02475 19.6441 7.1122 19.8758 7.26787 20.0466C7.42354 20.2173 7.63467 20.3133 7.85482 20.3133H31.1816C31.4017 20.3133 31.6128 20.2173 31.7685 20.0466C31.9242 19.8758 32.0116 19.6441 32.0116 19.4026V19.3654ZM31.9947 28.6673C31.9947 28.5477 31.9732 28.4293 31.9315 28.3188C31.8898 28.2083 31.8287 28.108 31.7516 28.0234C31.6745 27.9388 31.583 27.8717 31.4823 27.826C31.3816 27.7802 31.2736 27.7567 31.1646 27.7567H7.85482C7.74582 27.7567 7.63788 27.7802 7.53717 27.826C7.43646 27.8717 7.34495 27.9388 7.26787 28.0234C7.19079 28.108 7.12965 28.2083 7.08794 28.3188C7.04622 28.4293 7.02475 28.5477 7.02475 28.6673V28.6859C7.02475 28.8055 7.04622 28.9239 7.08794 29.0344C7.12965 29.1449 7.19079 29.2453 7.26787 29.3299C7.34495 29.4144 7.43646 29.4815 7.53717 29.5273C7.63788 29.573 7.74582 29.5966 7.85482 29.5966H31.1646C31.2736 29.5966 31.3816 29.573 31.4823 29.5273C31.583 29.4815 31.6745 29.4144 31.7516 29.3299C31.8287 29.2453 31.8898 29.1449 31.9315 29.0344C31.9732 28.9239 31.9947 28.8055 31.9947 28.6859V28.6673Z" fill="#333333"/>
</svg>
